<?xml version="1.0" encoding="UTF-8" standalone="no"?>
<!DOCTYPE svg PUBLIC "-//W3C//DTD SVG 1.1//EN"
 "http://www.w3.org/Graphics/SVG/1.1/DTD/svg11.dtd">
<!-- Generated by graphviz version 2.40.1 (20161225.0304)
 -->
<!-- Title: dependencies Pages: 1 -->
<svg width="2478pt" height="284pt"
 viewBox="0.00 0.00 2478.00 284.00" xmlns="http://www.w3.org/2000/svg" xmlns:xlink="http://www.w3.org/1999/xlink">
<g id="graph0" class="graph" transform="scale(1 1) rotate(0) translate(4 280)">
<title>dependencies</title>
<polygon fill="#ffffff" stroke="transparent" points="-4,4 -4,-280 2474,-280 2474,4 -4,4"/>
<text text-anchor="start" x="1214.0091" y="-42.4" font-family="sans-serif" font-weight="bold" font-size="14.00" fill="#000000">Legend</text>
<polygon fill="#ffffb3" stroke="transparent" points="1001,-10 1001,-30 1021,-30 1021,-10 1001,-10"/>
<text text-anchor="start" x="1024.629" y="-15.4" font-family="sans-serif" font-size="14.00" fill="#000000"> &#160;Declarations</text>
<polygon fill="#8dd3c7" stroke="transparent" points="1114,-10 1114,-30 1134,-30 1134,-10 1114,-10"/>
<text text-anchor="start" x="1137.7251" y="-15.4" font-family="sans-serif" font-size="14.00" fill="#000000"> &#160;Module</text>
<polygon fill="#80b1d3" stroke="transparent" points="1200,-10 1200,-30 1220,-30 1220,-10 1200,-10"/>
<text text-anchor="start" x="1223.7812" y="-15.4" font-family="sans-serif" font-size="14.00" fill="#000000"> &#160;Bootstrap</text>
<polygon fill="#fdb462" stroke="transparent" points="1297,-10 1297,-30 1317,-30 1317,-10 1297,-10"/>
<text text-anchor="start" x="1320.6732" y="-15.4" font-family="sans-serif" font-size="14.00" fill="#000000"> &#160;Providers</text>
<polygon fill="#fb8072" stroke="transparent" points="1393,-10 1393,-30 1413,-30 1413,-10 1393,-10"/>
<text text-anchor="start" x="1416.7258" y="-15.4" font-family="sans-serif" font-size="14.00" fill="#000000"> &#160;Exports</text>
<g id="clust1" class="cluster">
<title>cluster_AppModule</title>
<polygon fill="none" stroke="#000000" stroke-dasharray="1,5" points="8,-70 8,-268 2462,-268 2462,-70 8,-70"/>
</g>
<g id="clust2" class="cluster">
<title>cluster_AppModule_declarations</title>
<polygon fill="none" stroke="#000000" points="168,-78 168,-130 2454,-130 2454,-78 168,-78"/>
</g>
<g id="clust17" class="cluster">
<title>cluster_AppModule_imports</title>
<polygon fill="none" stroke="#000000" points="16,-78 16,-130 160,-130 160,-78 16,-78"/>
</g>
<g id="clust19" class="cluster">
<title>cluster_AppModule_bootstrap</title>
<polygon fill="none" stroke="#000000" points="1295,-208 1295,-260 1419,-260 1419,-208 1295,-208"/>
</g>
<!-- AppComponent -->
<g id="node1" class="node">
<title>AppComponent</title>
<polygon fill="#ffffb3" stroke="#000000" points="2445.9399,-122 2340.0601,-122 2340.0601,-86 2445.9399,-86 2445.9399,-122"/>
<text text-anchor="middle" x="2393" y="-99.8" font-family="Times,serif" font-size="14.00" fill="#000000">AppComponent</text>
</g>
<!-- AppModule -->
<g id="node15" class="node">
<title>AppModule</title>
<polygon fill="#8dd3c7" stroke="#000000" points="1398.6571,-187 1395.6571,-191 1374.6571,-191 1371.6571,-187 1315.3429,-187 1315.3429,-151 1398.6571,-151 1398.6571,-187"/>
<text text-anchor="middle" x="1357" y="-164.8" font-family="Times,serif" font-size="14.00" fill="#000000">AppModule</text>
</g>
<!-- AppComponent&#45;&gt;AppModule -->
<g id="edge1" class="edge">
<title>AppComponent&#45;&gt;AppModule</title>
<path fill="none" stroke="#000000" d="M2393,-122.3228C2393,-145.6602 2393,-183 2393,-183 2393,-183 1408.8956,-183 1408.8956,-183"/>
<polygon fill="#000000" stroke="#000000" points="1408.8956,-179.5001 1398.8956,-183 1408.8955,-186.5001 1408.8956,-179.5001"/>
</g>
<!-- BatchListComponent -->
<g id="node2" class="node">
<title>BatchListComponent</title>
<polygon fill="#ffffb3" stroke="#000000" points="2321.7674,-122 2186.2326,-122 2186.2326,-86 2321.7674,-86 2321.7674,-122"/>
<text text-anchor="middle" x="2254" y="-99.8" font-family="Times,serif" font-size="14.00" fill="#000000">BatchListComponent</text>
</g>
<!-- BatchListComponent&#45;&gt;AppModule -->
<g id="edge2" class="edge">
<title>BatchListComponent&#45;&gt;AppModule</title>
<path fill="none" stroke="#000000" d="M2231.3721,-122.0267C2231.3721,-142.7672 2231.3721,-174 2231.3721,-174 2231.3721,-174 1408.8782,-174 1408.8782,-174"/>
<polygon fill="#000000" stroke="#000000" points="1408.8782,-170.5001 1398.8782,-174 1408.8782,-177.5001 1408.8782,-170.5001"/>
</g>
<!-- BatchListComponent&#45;&gt;AppModule -->
<g id="edge3" class="edge">
<title>BatchListComponent&#45;&gt;AppModule</title>
<path fill="none" stroke="#000000" d="M2276.6279,-122.2921C2276.6279,-144.2057 2276.6279,-178 2276.6279,-178 2276.6279,-178 1408.9042,-178 1408.9042,-178"/>
<polygon fill="#000000" stroke="#000000" points="1408.9042,-174.5001 1398.9042,-178 1408.9041,-181.5001 1408.9042,-174.5001"/>
</g>
<!-- BatchReportsComponent -->
<g id="node3" class="node">
<title>BatchReportsComponent</title>
<polygon fill="#ffffb3" stroke="#000000" points="2167.5365,-122 2010.4635,-122 2010.4635,-86 2167.5365,-86 2167.5365,-122"/>
<text text-anchor="middle" x="2089" y="-99.8" font-family="Times,serif" font-size="14.00" fill="#000000">BatchReportsComponent</text>
</g>
<!-- BatchReportsComponent&#45;&gt;AppModule -->
<g id="edge4" class="edge">
<title>BatchReportsComponent&#45;&gt;AppModule</title>
<path fill="none" stroke="#000000" d="M2089,-122.1061C2089,-141.3391 2089,-169 2089,-169 2089,-169 1408.7183,-169 1408.7183,-169"/>
<polygon fill="#000000" stroke="#000000" points="1408.7184,-165.5001 1398.7183,-169 1408.7183,-172.5001 1408.7184,-165.5001"/>
</g>
<!-- BatchesDetailsComponent -->
<g id="node4" class="node">
<title>BatchesDetailsComponent</title>
<polygon fill="#ffffb3" stroke="#000000" points="1992.8005,-122 1827.1995,-122 1827.1995,-86 1992.8005,-86 1992.8005,-122"/>
<text text-anchor="middle" x="1910" y="-99.8" font-family="Times,serif" font-size="14.00" fill="#000000">BatchesDetailsComponent</text>
</g>
<!-- BatchesDetailsComponent&#45;&gt;AppModule -->
<g id="edge5" class="edge">
<title>BatchesDetailsComponent&#45;&gt;AppModule</title>
<path fill="none" stroke="#000000" d="M1910,-122.302C1910,-140.2699 1910,-165 1910,-165 1910,-165 1409.0188,-165 1409.0188,-165"/>
<polygon fill="#000000" stroke="#000000" points="1409.0188,-161.5001 1399.0188,-165 1409.0187,-168.5001 1409.0188,-161.5001"/>
</g>
<!-- CurriculumComponent -->
<g id="node5" class="node">
<title>CurriculumComponent</title>
<polygon fill="#ffffb3" stroke="#000000" points="1808.8767,-122 1663.1233,-122 1663.1233,-86 1808.8767,-86 1808.8767,-122"/>
<text text-anchor="middle" x="1736" y="-99.8" font-family="Times,serif" font-size="14.00" fill="#000000">CurriculumComponent</text>
</g>
<!-- CurriculumComponent&#45;&gt;AppModule -->
<g id="edge6" class="edge">
<title>CurriculumComponent&#45;&gt;AppModule</title>
<path fill="none" stroke="#000000" d="M1736,-122.027C1736,-138.3976 1736,-160 1736,-160 1736,-160 1409.0077,-160 1409.0077,-160"/>
<polygon fill="#000000" stroke="#000000" points="1409.0077,-156.5001 1399.0077,-160 1409.0077,-163.5001 1409.0077,-156.5001"/>
</g>
<!-- DashboardComponent -->
<g id="node6" class="node">
<title>DashboardComponent</title>
<polygon fill="#ffffb3" stroke="#000000" points="1644.9734,-122 1503.0266,-122 1503.0266,-86 1644.9734,-86 1644.9734,-122"/>
<text text-anchor="middle" x="1574" y="-99.8" font-family="Times,serif" font-size="14.00" fill="#000000">DashboardComponent</text>
</g>
<!-- DashboardComponent&#45;&gt;AppModule -->
<g id="edge7" class="edge">
<title>DashboardComponent&#45;&gt;AppModule</title>
<path fill="none" stroke="#000000" d="M1574,-122.1871C1574,-137.1824 1574,-156 1574,-156 1574,-156 1408.8398,-156 1408.8398,-156"/>
<polygon fill="#000000" stroke="#000000" points="1408.8398,-152.5001 1398.8398,-156 1408.8397,-159.5001 1408.8398,-152.5001"/>
</g>
<!-- FooterComponent -->
<g id="node7" class="node">
<title>FooterComponent</title>
<polygon fill="#ffffb3" stroke="#000000" points="1484.8809,-122 1367.1191,-122 1367.1191,-86 1484.8809,-86 1484.8809,-122"/>
<text text-anchor="middle" x="1426" y="-99.8" font-family="Times,serif" font-size="14.00" fill="#000000">FooterComponent</text>
</g>
<!-- FooterComponent&#45;&gt;AppModule -->
<g id="edge8" class="edge">
<title>FooterComponent&#45;&gt;AppModule</title>
<path fill="none" stroke="#000000" d="M1382.9439,-122.1061C1382.9439,-122.1061 1382.9439,-140.991 1382.9439,-140.991"/>
<polygon fill="#000000" stroke="#000000" points="1379.444,-140.9909 1382.9439,-150.991 1386.444,-140.991 1379.444,-140.9909"/>
</g>
<!-- HeaderComponent -->
<g id="node8" class="node">
<title>HeaderComponent</title>
<polygon fill="#ffffb3" stroke="#000000" points="1348.7437,-122 1227.2563,-122 1227.2563,-86 1348.7437,-86 1348.7437,-122"/>
<text text-anchor="middle" x="1288" y="-99.8" font-family="Times,serif" font-size="14.00" fill="#000000">HeaderComponent</text>
</g>
<!-- HeaderComponent&#45;&gt;AppModule -->
<g id="edge9" class="edge">
<title>HeaderComponent&#45;&gt;AppModule</title>
<path fill="none" stroke="#000000" d="M1332.0217,-122.1061C1332.0217,-122.1061 1332.0217,-140.991 1332.0217,-140.991"/>
<polygon fill="#000000" stroke="#000000" points="1328.5218,-140.9909 1332.0217,-150.991 1335.5218,-140.991 1328.5218,-140.9909"/>
</g>
<!-- SidebarComponent -->
<g id="node9" class="node">
<title>SidebarComponent</title>
<polygon fill="#ffffb3" stroke="#000000" points="1209.0954,-122 1084.9046,-122 1084.9046,-86 1209.0954,-86 1209.0954,-122"/>
<text text-anchor="middle" x="1147" y="-99.8" font-family="Times,serif" font-size="14.00" fill="#000000">SidebarComponent</text>
</g>
<!-- SidebarComponent&#45;&gt;AppModule -->
<g id="edge10" class="edge">
<title>SidebarComponent&#45;&gt;AppModule</title>
<path fill="none" stroke="#000000" d="M1147,-122.1871C1147,-137.1824 1147,-156 1147,-156 1147,-156 1305.2597,-156 1305.2597,-156"/>
<polygon fill="#000000" stroke="#000000" points="1305.2597,-159.5001 1315.2597,-156 1305.2596,-152.5001 1305.2597,-159.5001"/>
</g>
<!-- SurveyCreateComponent -->
<g id="node10" class="node">
<title>SurveyCreateComponent</title>
<polygon fill="#ffffb3" stroke="#000000" points="1066.5225,-122 909.4775,-122 909.4775,-86 1066.5225,-86 1066.5225,-122"/>
<text text-anchor="middle" x="988" y="-99.8" font-family="Times,serif" font-size="14.00" fill="#000000">SurveyCreateComponent</text>
</g>
<!-- SurveyCreateComponent&#45;&gt;AppModule -->
<g id="edge11" class="edge">
<title>SurveyCreateComponent&#45;&gt;AppModule</title>
<path fill="none" stroke="#000000" d="M988,-122.027C988,-138.3976 988,-160 988,-160 988,-160 1305.0303,-160 1305.0303,-160"/>
<polygon fill="#000000" stroke="#000000" points="1305.0303,-163.5001 1315.0303,-160 1305.0302,-156.5001 1305.0303,-163.5001"/>
</g>
<!-- SurveyHomeComponent -->
<g id="node11" class="node">
<title>SurveyHomeComponent</title>
<polygon fill="#ffffb3" stroke="#000000" points="891.7021,-122 736.2979,-122 736.2979,-86 891.7021,-86 891.7021,-122"/>
<text text-anchor="middle" x="814" y="-99.8" font-family="Times,serif" font-size="14.00" fill="#000000">SurveyHomeComponent</text>
</g>
<!-- SurveyHomeComponent&#45;&gt;AppModule -->
<g id="edge12" class="edge">
<title>SurveyHomeComponent&#45;&gt;AppModule</title>
<path fill="none" stroke="#000000" d="M814,-122.302C814,-140.2699 814,-165 814,-165 814,-165 1305.2933,-165 1305.2933,-165"/>
<polygon fill="#000000" stroke="#000000" points="1305.2934,-168.5001 1315.2933,-165 1305.2933,-161.5001 1305.2934,-168.5001"/>
</g>
<!-- SurveyManageComponent -->
<g id="node12" class="node">
<title>SurveyManageComponent</title>
<polygon fill="#ffffb3" stroke="#000000" points="718.0786,-122 551.9214,-122 551.9214,-86 718.0786,-86 718.0786,-122"/>
<text text-anchor="middle" x="635" y="-99.8" font-family="Times,serif" font-size="14.00" fill="#000000">SurveyManageComponent</text>
</g>
<!-- SurveyManageComponent&#45;&gt;AppModule -->
<g id="edge13" class="edge">
<title>SurveyManageComponent&#45;&gt;AppModule</title>
<path fill="none" stroke="#000000" d="M635,-122.1061C635,-141.3391 635,-169 635,-169 635,-169 1305.3256,-169 1305.3256,-169"/>
<polygon fill="#000000" stroke="#000000" points="1305.3256,-172.5001 1315.3256,-169 1305.3255,-165.5001 1305.3256,-172.5001"/>
</g>
<!-- SurveyScheduleComponent -->
<g id="node13" class="node">
<title>SurveyScheduleComponent</title>
<polygon fill="#ffffb3" stroke="#000000" points="534.3075,-122 361.6925,-122 361.6925,-86 534.3075,-86 534.3075,-122"/>
<text text-anchor="middle" x="448" y="-99.8" font-family="Times,serif" font-size="14.00" fill="#000000">SurveyScheduleComponent</text>
</g>
<!-- SurveyScheduleComponent&#45;&gt;AppModule -->
<g id="edge14" class="edge">
<title>SurveyScheduleComponent&#45;&gt;AppModule</title>
<path fill="none" stroke="#000000" d="M448,-122.0267C448,-142.7672 448,-174 448,-174 448,-174 1305.2806,-174 1305.2806,-174"/>
<polygon fill="#000000" stroke="#000000" points="1305.2806,-177.5001 1315.2806,-174 1305.2806,-170.5001 1305.2806,-177.5001"/>
</g>
<!-- WeeklyReportsComponent -->
<g id="node14" class="node">
<title>WeeklyReportsComponent</title>
<polygon fill="#ffffb3" stroke="#000000" points="344.4143,-122 175.5857,-122 175.5857,-86 344.4143,-86 344.4143,-122"/>
<text text-anchor="middle" x="260" y="-99.8" font-family="Times,serif" font-size="14.00" fill="#000000">WeeklyReportsComponent</text>
</g>
<!-- WeeklyReportsComponent&#45;&gt;AppModule -->
<g id="edge15" class="edge">
<title>WeeklyReportsComponent&#45;&gt;AppModule</title>
<path fill="none" stroke="#000000" d="M260,-122.2921C260,-144.2057 260,-178 260,-178 260,-178 1305.3359,-178 1305.3359,-178"/>
<polygon fill="#000000" stroke="#000000" points="1305.3359,-181.5001 1315.3359,-178 1305.3358,-174.5001 1305.3359,-181.5001"/>
</g>
<!-- AppComponent  -->
<g id="node17" class="node">
<title>AppComponent </title>
<polygon fill="#80b1d3" stroke="#000000" points="1411.439,-252 1302.561,-252 1302.561,-216 1411.439,-216 1411.439,-252"/>
<text text-anchor="middle" x="1357" y="-229.8" font-family="Times,serif" font-size="14.00" fill="#000000">AppComponent </text>
</g>
<!-- AppModule&#45;&gt;AppComponent  -->
<g id="edge17" class="edge">
<title>AppModule&#45;&gt;AppComponent </title>
<path fill="none" stroke="#000000" stroke-dasharray="1,5" d="M1357,-187.1061C1357,-187.1061 1357,-205.991 1357,-205.991"/>
<polygon fill="#000000" stroke="#000000" points="1353.5001,-205.9909 1357,-215.991 1360.5001,-205.991 1353.5001,-205.9909"/>
</g>
<!-- AppRoutingModule -->
<g id="node16" class="node">
<title>AppRoutingModule</title>
<polygon fill="#8dd3c7" stroke="#000000" points="152.2744,-122 149.2744,-126 128.2744,-126 125.2744,-122 23.7256,-122 23.7256,-86 152.2744,-86 152.2744,-122"/>
<text text-anchor="middle" x="88" y="-99.8" font-family="Times,serif" font-size="14.00" fill="#000000">AppRoutingModule</text>
</g>
<!-- AppRoutingModule&#45;&gt;AppModule -->
<g id="edge16" class="edge">
<title>AppRoutingModule&#45;&gt;AppModule</title>
<path fill="none" stroke="#000000" d="M88,-122.3228C88,-145.6602 88,-183 88,-183 88,-183 1305.1395,-183 1305.1395,-183"/>
<polygon fill="#000000" stroke="#000000" points="1305.1396,-186.5001 1315.1395,-183 1305.1395,-179.5001 1305.1396,-186.5001"/>
</g>
</g>
</svg>
