<?xml version="1.0" encoding="UTF-8" standalone="no"?>
<!DOCTYPE svg PUBLIC "-//W3C//DTD SVG 1.1//EN"
 "http://www.w3.org/Graphics/SVG/1.1/DTD/svg11.dtd">
<!-- Generated by graphviz version 2.40.1 (20161225.0304)
 -->
<!-- Title: dependencies Pages: 1 -->
<svg width="2434pt" height="284pt"
 viewBox="0.00 0.00 2434.00 284.00" xmlns="http://www.w3.org/2000/svg" xmlns:xlink="http://www.w3.org/1999/xlink">
<g id="graph0" class="graph" transform="scale(1 1) rotate(0) translate(4 280)">
<title>dependencies</title>
<polygon fill="#ffffff" stroke="transparent" points="-4,4 -4,-280 2430,-280 2430,4 -4,4"/>
<text text-anchor="start" x="1192.0091" y="-42.4" font-family="sans-serif" font-weight="bold" font-size="14.00" fill="#000000">Legend</text>
<polygon fill="#ffffb3" stroke="transparent" points="979,-10 979,-30 999,-30 999,-10 979,-10"/>
<text text-anchor="start" x="1002.629" y="-15.4" font-family="sans-serif" font-size="14.00" fill="#000000"> &#160;Declarations</text>
<polygon fill="#8dd3c7" stroke="transparent" points="1092,-10 1092,-30 1112,-30 1112,-10 1092,-10"/>
<text text-anchor="start" x="1115.7251" y="-15.4" font-family="sans-serif" font-size="14.00" fill="#000000"> &#160;Module</text>
<polygon fill="#80b1d3" stroke="transparent" points="1178,-10 1178,-30 1198,-30 1198,-10 1178,-10"/>
<text text-anchor="start" x="1201.7812" y="-15.4" font-family="sans-serif" font-size="14.00" fill="#000000"> &#160;Bootstrap</text>
<polygon fill="#fdb462" stroke="transparent" points="1275,-10 1275,-30 1295,-30 1295,-10 1275,-10"/>
<text text-anchor="start" x="1298.6732" y="-15.4" font-family="sans-serif" font-size="14.00" fill="#000000"> &#160;Providers</text>
<polygon fill="#fb8072" stroke="transparent" points="1371,-10 1371,-30 1391,-30 1391,-10 1371,-10"/>
<text text-anchor="start" x="1394.7258" y="-15.4" font-family="sans-serif" font-size="14.00" fill="#000000"> &#160;Exports</text>
<g id="clust1" class="cluster">
<title>cluster_AppModule</title>
<polygon fill="none" stroke="#000000" stroke-dasharray="1,5" points="8,-70 8,-268 2418,-268 2418,-70 8,-70"/>
</g>
<g id="clust2" class="cluster">
<title>cluster_AppModule_declarations</title>
<polygon fill="none" stroke="#000000" points="168,-78 168,-130 2410,-130 2410,-78 168,-78"/>
</g>
<g id="clust17" class="cluster">
<title>cluster_AppModule_imports</title>
<polygon fill="none" stroke="#000000" points="16,-78 16,-130 160,-130 160,-78 16,-78"/>
</g>
<g id="clust19" class="cluster">
<title>cluster_AppModule_bootstrap</title>
<polygon fill="none" stroke="#000000" points="1251,-208 1251,-260 1375,-260 1375,-208 1251,-208"/>
</g>
<!-- AppComponent -->
<g id="node1" class="node">
<title>AppComponent</title>
<polygon fill="#ffffb3" stroke="#000000" points="2401.9399,-122 2296.0601,-122 2296.0601,-86 2401.9399,-86 2401.9399,-122"/>
<text text-anchor="middle" x="2349" y="-99.8" font-family="Times,serif" font-size="14.00" fill="#000000">AppComponent</text>
</g>
<!-- AppModule -->
<g id="node15" class="node">
<title>AppModule</title>
<polygon fill="#8dd3c7" stroke="#000000" points="1354.6571,-187 1351.6571,-191 1330.6571,-191 1327.6571,-187 1271.3429,-187 1271.3429,-151 1354.6571,-151 1354.6571,-187"/>
<text text-anchor="middle" x="1313" y="-164.8" font-family="Times,serif" font-size="14.00" fill="#000000">AppModule</text>
</g>
<!-- AppComponent&#45;&gt;AppModule -->
<g id="edge1" class="edge">
<title>AppComponent&#45;&gt;AppModule</title>
<path fill="none" stroke="#000000" d="M2349,-122.3228C2349,-145.6602 2349,-183 2349,-183 2349,-183 1364.8956,-183 1364.8956,-183"/>
<polygon fill="#000000" stroke="#000000" points="1364.8956,-179.5001 1354.8956,-183 1364.8955,-186.5001 1364.8956,-179.5001"/>
</g>
<!-- BatchListComponent -->
<g id="node2" class="node">
<title>BatchListComponent</title>
<polygon fill="#ffffb3" stroke="#000000" points="2277.7674,-122 2142.2326,-122 2142.2326,-86 2277.7674,-86 2277.7674,-122"/>
<text text-anchor="middle" x="2210" y="-99.8" font-family="Times,serif" font-size="14.00" fill="#000000">BatchListComponent</text>
</g>
<!-- BatchListComponent&#45;&gt;AppModule -->
<g id="edge2" class="edge">
<title>BatchListComponent&#45;&gt;AppModule</title>
<path fill="none" stroke="#000000" d="M2187.3721,-122.0267C2187.3721,-142.7672 2187.3721,-174 2187.3721,-174 2187.3721,-174 1364.8782,-174 1364.8782,-174"/>
<polygon fill="#000000" stroke="#000000" points="1364.8782,-170.5001 1354.8782,-174 1364.8782,-177.5001 1364.8782,-170.5001"/>
</g>
<!-- BatchListComponent&#45;&gt;AppModule -->
<g id="edge3" class="edge">
<title>BatchListComponent&#45;&gt;AppModule</title>
<path fill="none" stroke="#000000" d="M2232.6279,-122.2921C2232.6279,-144.2057 2232.6279,-178 2232.6279,-178 2232.6279,-178 1364.9042,-178 1364.9042,-178"/>
<polygon fill="#000000" stroke="#000000" points="1364.9042,-174.5001 1354.9042,-178 1364.9041,-181.5001 1364.9042,-174.5001"/>
</g>
<!-- BatchReportsComponent -->
<g id="node3" class="node">
<title>BatchReportsComponent</title>
<polygon fill="#ffffb3" stroke="#000000" points="2123.5365,-122 1966.4635,-122 1966.4635,-86 2123.5365,-86 2123.5365,-122"/>
<text text-anchor="middle" x="2045" y="-99.8" font-family="Times,serif" font-size="14.00" fill="#000000">BatchReportsComponent</text>
</g>
<!-- BatchReportsComponent&#45;&gt;AppModule -->
<g id="edge4" class="edge">
<title>BatchReportsComponent&#45;&gt;AppModule</title>
<path fill="none" stroke="#000000" d="M2045,-122.1061C2045,-141.3391 2045,-169 2045,-169 2045,-169 1364.7183,-169 1364.7183,-169"/>
<polygon fill="#000000" stroke="#000000" points="1364.7184,-165.5001 1354.7183,-169 1364.7183,-172.5001 1364.7184,-165.5001"/>
</g>
<!-- BatchesDetailsComponent -->
<g id="node4" class="node">
<title>BatchesDetailsComponent</title>
<polygon fill="#ffffb3" stroke="#000000" points="1948.8005,-122 1783.1995,-122 1783.1995,-86 1948.8005,-86 1948.8005,-122"/>
<text text-anchor="middle" x="1866" y="-99.8" font-family="Times,serif" font-size="14.00" fill="#000000">BatchesDetailsComponent</text>
</g>
<!-- BatchesDetailsComponent&#45;&gt;AppModule -->
<g id="edge5" class="edge">
<title>BatchesDetailsComponent&#45;&gt;AppModule</title>
<path fill="none" stroke="#000000" d="M1866,-122.302C1866,-140.2699 1866,-165 1866,-165 1866,-165 1365.0188,-165 1365.0188,-165"/>
<polygon fill="#000000" stroke="#000000" points="1365.0188,-161.5001 1355.0188,-165 1365.0187,-168.5001 1365.0188,-161.5001"/>
</g>
<!-- CurriculumComponent -->
<g id="node5" class="node">
<title>CurriculumComponent</title>
<polygon fill="#ffffb3" stroke="#000000" points="1764.8767,-122 1619.1233,-122 1619.1233,-86 1764.8767,-86 1764.8767,-122"/>
<text text-anchor="middle" x="1692" y="-99.8" font-family="Times,serif" font-size="14.00" fill="#000000">CurriculumComponent</text>
</g>
<!-- CurriculumComponent&#45;&gt;AppModule -->
<g id="edge6" class="edge">
<title>CurriculumComponent&#45;&gt;AppModule</title>
<path fill="none" stroke="#000000" d="M1692,-122.027C1692,-138.3976 1692,-160 1692,-160 1692,-160 1365.0077,-160 1365.0077,-160"/>
<polygon fill="#000000" stroke="#000000" points="1365.0077,-156.5001 1355.0077,-160 1365.0077,-163.5001 1365.0077,-156.5001"/>
</g>
<!-- DashboardComponent -->
<g id="node6" class="node">
<title>DashboardComponent</title>
<polygon fill="#ffffb3" stroke="#000000" points="1600.9734,-122 1459.0266,-122 1459.0266,-86 1600.9734,-86 1600.9734,-122"/>
<text text-anchor="middle" x="1530" y="-99.8" font-family="Times,serif" font-size="14.00" fill="#000000">DashboardComponent</text>
</g>
<!-- DashboardComponent&#45;&gt;AppModule -->
<g id="edge7" class="edge">
<title>DashboardComponent&#45;&gt;AppModule</title>
<path fill="none" stroke="#000000" d="M1530,-122.1871C1530,-137.1824 1530,-156 1530,-156 1530,-156 1364.8398,-156 1364.8398,-156"/>
<polygon fill="#000000" stroke="#000000" points="1364.8398,-152.5001 1354.8398,-156 1364.8397,-159.5001 1364.8398,-152.5001"/>
</g>
<!-- FooterComponent -->
<g id="node7" class="node">
<title>FooterComponent</title>
<polygon fill="#ffffb3" stroke="#000000" points="1440.8809,-122 1323.1191,-122 1323.1191,-86 1440.8809,-86 1440.8809,-122"/>
<text text-anchor="middle" x="1382" y="-99.8" font-family="Times,serif" font-size="14.00" fill="#000000">FooterComponent</text>
</g>
<!-- FooterComponent&#45;&gt;AppModule -->
<g id="edge8" class="edge">
<title>FooterComponent&#45;&gt;AppModule</title>
<path fill="none" stroke="#000000" d="M1338.9439,-122.1061C1338.9439,-122.1061 1338.9439,-140.991 1338.9439,-140.991"/>
<polygon fill="#000000" stroke="#000000" points="1335.444,-140.9909 1338.9439,-150.991 1342.444,-140.991 1335.444,-140.9909"/>
</g>
<!-- HeaderComponent -->
<g id="node8" class="node">
<title>HeaderComponent</title>
<polygon fill="#ffffb3" stroke="#000000" points="1304.7437,-122 1183.2563,-122 1183.2563,-86 1304.7437,-86 1304.7437,-122"/>
<text text-anchor="middle" x="1244" y="-99.8" font-family="Times,serif" font-size="14.00" fill="#000000">HeaderComponent</text>
</g>
<!-- HeaderComponent&#45;&gt;AppModule -->
<g id="edge9" class="edge">
<title>HeaderComponent&#45;&gt;AppModule</title>
<path fill="none" stroke="#000000" d="M1288.0217,-122.1061C1288.0217,-122.1061 1288.0217,-140.991 1288.0217,-140.991"/>
<polygon fill="#000000" stroke="#000000" points="1284.5218,-140.9909 1288.0217,-150.991 1291.5218,-140.991 1284.5218,-140.9909"/>
</g>
<!-- ReportsComponent -->
<g id="node9" class="node">
<title>ReportsComponent</title>
<polygon fill="#ffffb3" stroke="#000000" points="1165.3795,-122 1040.6205,-122 1040.6205,-86 1165.3795,-86 1165.3795,-122"/>
<text text-anchor="middle" x="1103" y="-99.8" font-family="Times,serif" font-size="14.00" fill="#000000">ReportsComponent</text>
</g>
<!-- ReportsComponent&#45;&gt;AppModule -->
<g id="edge10" class="edge">
<title>ReportsComponent&#45;&gt;AppModule</title>
<path fill="none" stroke="#000000" d="M1103,-122.1871C1103,-137.1824 1103,-156 1103,-156 1103,-156 1261.2597,-156 1261.2597,-156"/>
<polygon fill="#000000" stroke="#000000" points="1261.2597,-159.5001 1271.2597,-156 1261.2596,-152.5001 1261.2597,-159.5001"/>
</g>
<!-- SidebarComponent -->
<g id="node10" class="node">
<title>SidebarComponent</title>
<polygon fill="#ffffb3" stroke="#000000" points="1023.0954,-122 898.9046,-122 898.9046,-86 1023.0954,-86 1023.0954,-122"/>
<text text-anchor="middle" x="961" y="-99.8" font-family="Times,serif" font-size="14.00" fill="#000000">SidebarComponent</text>
</g>
<!-- SidebarComponent&#45;&gt;AppModule -->
<g id="edge11" class="edge">
<title>SidebarComponent&#45;&gt;AppModule</title>
<path fill="none" stroke="#000000" d="M961,-122.027C961,-138.3976 961,-160 961,-160 961,-160 1261.2387,-160 1261.2387,-160"/>
<polygon fill="#000000" stroke="#000000" points="1261.2387,-163.5001 1271.2387,-160 1261.2387,-156.5001 1261.2387,-163.5001"/>
</g>
<!-- SurveyCreateComponent -->
<g id="node11" class="node">
<title>SurveyCreateComponent</title>
<polygon fill="#ffffb3" stroke="#000000" points="880.5225,-122 723.4775,-122 723.4775,-86 880.5225,-86 880.5225,-122"/>
<text text-anchor="middle" x="802" y="-99.8" font-family="Times,serif" font-size="14.00" fill="#000000">SurveyCreateComponent</text>
</g>
<!-- SurveyCreateComponent&#45;&gt;AppModule -->
<g id="edge12" class="edge">
<title>SurveyCreateComponent&#45;&gt;AppModule</title>
<path fill="none" stroke="#000000" d="M802,-122.302C802,-140.2699 802,-165 802,-165 802,-165 1261.1827,-165 1261.1827,-165"/>
<polygon fill="#000000" stroke="#000000" points="1261.1828,-168.5001 1271.1827,-165 1261.1827,-161.5001 1261.1828,-168.5001"/>
</g>
<!-- SurveyHomeComponent -->
<g id="node12" class="node">
<title>SurveyHomeComponent</title>
<polygon fill="#ffffb3" stroke="#000000" points="705.7021,-122 550.2979,-122 550.2979,-86 705.7021,-86 705.7021,-122"/>
<text text-anchor="middle" x="628" y="-99.8" font-family="Times,serif" font-size="14.00" fill="#000000">SurveyHomeComponent</text>
</g>
<!-- SurveyHomeComponent&#45;&gt;AppModule -->
<g id="edge13" class="edge">
<title>SurveyHomeComponent&#45;&gt;AppModule</title>
<path fill="none" stroke="#000000" d="M628,-122.1061C628,-141.3391 628,-169 628,-169 628,-169 1261.1813,-169 1261.1813,-169"/>
<polygon fill="#000000" stroke="#000000" points="1261.1814,-172.5001 1271.1813,-169 1261.1813,-165.5001 1261.1814,-172.5001"/>
</g>
<!-- SurveyManageComponent -->
<g id="node13" class="node">
<title>SurveyManageComponent</title>
<polygon fill="#ffffb3" stroke="#000000" points="532.0786,-122 365.9214,-122 365.9214,-86 532.0786,-86 532.0786,-122"/>
<text text-anchor="middle" x="449" y="-99.8" font-family="Times,serif" font-size="14.00" fill="#000000">SurveyManageComponent</text>
</g>
<!-- SurveyManageComponent&#45;&gt;AppModule -->
<g id="edge14" class="edge">
<title>SurveyManageComponent&#45;&gt;AppModule</title>
<path fill="none" stroke="#000000" d="M449,-122.0267C449,-142.7672 449,-174 449,-174 449,-174 1261.3275,-174 1261.3275,-174"/>
<polygon fill="#000000" stroke="#000000" points="1261.3275,-177.5001 1271.3275,-174 1261.3274,-170.5001 1261.3275,-177.5001"/>
</g>
<!-- SurveyScheduleComponent -->
<g id="node14" class="node">
<title>SurveyScheduleComponent</title>
<polygon fill="#ffffb3" stroke="#000000" points="348.3075,-122 175.6925,-122 175.6925,-86 348.3075,-86 348.3075,-122"/>
<text text-anchor="middle" x="262" y="-99.8" font-family="Times,serif" font-size="14.00" fill="#000000">SurveyScheduleComponent</text>
</g>
<!-- SurveyScheduleComponent&#45;&gt;AppModule -->
<g id="edge15" class="edge">
<title>SurveyScheduleComponent&#45;&gt;AppModule</title>
<path fill="none" stroke="#000000" d="M262,-122.2921C262,-144.2057 262,-178 262,-178 262,-178 1261.151,-178 1261.151,-178"/>
<polygon fill="#000000" stroke="#000000" points="1261.151,-181.5001 1271.151,-178 1261.151,-174.5001 1261.151,-181.5001"/>
</g>
<!-- AppComponent  -->
<g id="node17" class="node">
<title>AppComponent </title>
<polygon fill="#80b1d3" stroke="#000000" points="1367.439,-252 1258.561,-252 1258.561,-216 1367.439,-216 1367.439,-252"/>
<text text-anchor="middle" x="1313" y="-229.8" font-family="Times,serif" font-size="14.00" fill="#000000">AppComponent </text>
</g>
<!-- AppModule&#45;&gt;AppComponent  -->
<g id="edge17" class="edge">
<title>AppModule&#45;&gt;AppComponent </title>
<path fill="none" stroke="#000000" stroke-dasharray="1,5" d="M1313,-187.1061C1313,-187.1061 1313,-205.991 1313,-205.991"/>
<polygon fill="#000000" stroke="#000000" points="1309.5001,-205.9909 1313,-215.991 1316.5001,-205.991 1309.5001,-205.9909"/>
</g>
<!-- AppRoutingModule -->
<g id="node16" class="node">
<title>AppRoutingModule</title>
<polygon fill="#8dd3c7" stroke="#000000" points="152.2744,-122 149.2744,-126 128.2744,-126 125.2744,-122 23.7256,-122 23.7256,-86 152.2744,-86 152.2744,-122"/>
<text text-anchor="middle" x="88" y="-99.8" font-family="Times,serif" font-size="14.00" fill="#000000">AppRoutingModule</text>
</g>
<!-- AppRoutingModule&#45;&gt;AppModule -->
<g id="edge16" class="edge">
<title>AppRoutingModule&#45;&gt;AppModule</title>
<path fill="none" stroke="#000000" d="M88,-122.3228C88,-145.6602 88,-183 88,-183 88,-183 1261.1871,-183 1261.1871,-183"/>
<polygon fill="#000000" stroke="#000000" points="1261.1871,-186.5001 1271.1871,-183 1261.1871,-179.5001 1261.1871,-186.5001"/>
</g>
</g>
</svg>
